<svg width="780" height="780" viewBox="0 0 780 780" fill="none" xmlns="http://www.w3.org/2000/svg">
<path d="M308.059 68.7019L338.935 26.5874C340.996 23.7767 344.371 22.2416 347.844 22.5357C351.317 22.8298 354.386 24.9107 355.944 28.0279L359.444 35.0279C359.499 35.1376 359.552 35.2484 359.603 35.3601C360.332 36.9637 360.85 38.9238 361.21 40.3879C361.626 42.0782 362.06 44.1006 362.507 46.2788C362.91 48.2401 363.341 50.4243 363.795 52.7185L363.955 53.5283C364.47 56.1345 365.017 58.8913 365.602 61.7285C368.009 73.406 370.837 85.2701 374.054 92.4177C377.751 100.632 381.315 108.138 384.065 113.597C384.742 114.941 385.357 116.135 385.903 117.169C388.116 116.844 390.786 116.373 393.55 115.796C403.062 113.805 418.569 112.805 437.344 112.708C469.64 112.541 490.989 115.952 518.253 125.834C563.753 142.31 608.038 177.186 637.821 219.671C651.728 239.504 671.403 277.115 681.772 303.508C716.858 392.802 748.34 546.291 758.505 676.479L758.543 676.96C761.21 711.05 762.601 728.844 762.651 738.628C762.676 743.451 762.415 747.573 761.206 751.093C759.822 755.123 757.484 757.466 756.146 758.807L756.019 758.934C756.018 758.935 756.016 758.937 756.015 758.938L756.007 758.946L748.919 751.892C744.385 756.463 735.107 758.063 732.997 754.617L308.059 68.7019ZM308.059 68.7019L285.279 88.677L239.413 121.486L191.387 137.432C189.787 137.964 188.346 138.891 187.2 140.129L174.777 153.548C174.533 153.812 174.303 154.089 174.088 154.378C168.226 162.269 155.649 176.096 146.357 184.735L146.356 184.736C145.793 185.26 145.239 185.774 144.694 186.28C139.128 191.452 134.537 195.718 130.993 199.51C126.988 203.795 123.785 208.018 121.596 213.154C119.42 218.259 118.546 223.564 118.135 229.551C117.769 234.888 117.744 241.395 117.714 249.358C117.711 250.138 117.708 250.932 117.704 251.741L117.704 251.744C117.6 278.147 117.015 283.024 114.102 292.908L308.059 68.7019ZM114.818 546.783L103.142 562.406C101.056 565.198 97.665 566.703 94.1943 566.376L82.9964 565.321L82.9936 565.32C58.8663 563.041 34.9098 545.617 24.9779 523.303L114.818 546.783ZM114.818 546.783C117.9 542.667 121.093 538.717 123.716 535.709C125.034 534.198 126.138 533.004 126.967 532.175C127.283 531.86 127.504 531.652 127.641 531.528C129.464 530.619 130.783 530.729 131.54 530.98C132.331 531.242 133.44 531.963 134.252 533.919L134.264 533.947M114.818 546.783L134.264 533.947M122.214 554.911C129.852 544.653 133.1 539.819 134.385 536.836C134.721 536.055 134.793 535.675 134.806 535.557M122.214 554.911L134.806 535.557M122.214 554.911C118.703 559.619 115.522 564.319 113.21 568.159C112.068 570.056 111.032 571.917 110.269 573.555C109.895 574.358 109.482 575.326 109.167 576.349L109.155 576.387C108.964 577.004 108.244 579.331 108.758 582.07L108.759 582.073C109.715 587.156 113.126 590.494 116.734 592.192C120.036 593.746 123.563 594.031 126.487 593.861C132.406 593.516 138.961 591.135 144.43 587.141L144.431 587.141C157.7 577.452 166.084 564.936 181.282 535.857L181.283 535.854C189.073 520.938 198.588 504.435 202.329 499.148L202.333 499.143C216.842 478.613 239.094 461.905 289.08 436.288C314.04 423.502 337.61 409.988 356.639 397.755C375.328 385.741 390.593 374.366 398.08 365.809L398.081 365.807C415.219 346.212 422.332 323.272 420.679 295.271M122.214 554.911L427.053 277.659C425.712 277.017 425.129 276.851 424.961 276.813M134.806 535.557C134.806 535.555 134.806 535.553 134.806 535.551M134.806 535.557L134.806 535.551M420.679 295.271C420.679 295.272 420.679 295.272 420.679 295.273L410.696 295.86L420.679 295.271ZM420.679 295.271C420.105 285.508 420.504 281.087 421.228 278.932C421.367 278.518 421.482 278.314 421.531 278.236C421.573 278.168 421.596 278.146 421.619 278.124C421.671 278.077 422.061 277.732 423.424 277.254M423.424 277.254C424.348 276.929 424.797 276.837 424.961 276.813M423.424 277.254L420.114 267.818L423.426 277.253C423.425 277.253 423.425 277.254 423.424 277.254ZM424.961 276.813C425.079 276.796 425.048 276.815 424.939 276.807C424.932 276.806 424.927 276.806 424.922 276.805M424.961 276.813C424.944 276.81 424.931 276.807 424.922 276.805M424.922 276.805C424.912 276.804 424.907 276.803 424.906 276.803C424.906 276.803 424.911 276.803 424.922 276.805ZM134.264 533.947C134.732 535.065 134.799 535.476 134.806 535.551M134.264 533.947L134.806 535.551M134.806 535.551C134.806 535.529 134.807 535.516 134.808 535.515M134.806 535.551C134.806 535.552 134.807 535.554 134.807 535.555M134.808 535.515L134.807 535.555M134.808 535.515C134.809 535.513 134.81 535.526 134.807 535.555M134.808 535.515L134.807 535.555M728.342 764.197C728.543 764.206 728.733 764.216 728.912 764.225L427.053 277.66C428.429 278.32 428.964 278.76 429.66 280.633C430.711 283.462 431.538 288.455 432.142 298.168L432.142 298.173C433.81 324.821 421.755 356.977 402.577 376.646L402.575 376.649L390.995 388.534C388.874 390.711 387.858 393.733 388.234 396.749L389.629 407.948L389.63 407.955C390.561 415.388 390.606 428.326 389.851 442.017C389.099 455.658 387.61 469.038 385.779 477.297C378.128 511.754 363.772 544.412 345.177 570.005L345.171 570.014C339.95 577.217 318.987 599.883 297.835 620.943L297.833 620.944C260.369 658.257 248.22 672.661 238.842 693.348C232.772 706.692 228.66 726.487 228.602 741.833L228.602 741.854L228.585 752.843C228.581 755.498 229.632 758.045 231.508 759.924C233.384 761.803 235.93 762.859 238.585 762.859H485.25C566.522 762.859 628.251 763.008 669.743 763.302C690.496 763.449 706.147 763.633 716.637 763.85C721.895 763.959 725.782 764.076 728.342 764.197ZM388.115 121.091C388.115 121.09 388.114 121.09 388.114 121.089C388.132 121.113 388.132 121.116 388.115 121.091ZM21.9597 469.507C20.0342 478.636 19.3811 488.721 19.8418 497.995C20.2942 507.104 21.8633 516.308 24.9767 523.3L21.9597 469.507Z" stroke="black" stroke-width="20" stroke-linejoin="round"/>
<path d="M152.945 289.217C152.765 289.285 152.596 289.347 152.439 289.403C152.396 288.979 152.26 288.426 151.892 287.852C151.87 287.818 151.847 287.784 151.825 287.751L153.303 288.531C153.167 288.789 153.048 289.016 152.945 289.217ZM151.822 287.747L153.305 288.527C154.065 287.082 154.969 285.425 155.986 283.606C153.167 284.854 151.264 285.615 150.603 285.797L150.592 285.8L150.58 285.804C150.427 285.847 150.287 285.886 150.159 285.921C150.081 286.067 150.005 286.211 149.93 286.353C150.201 286.436 150.528 286.573 150.86 286.795C150.867 286.8 150.875 286.805 150.882 286.81C151.208 287.031 151.537 287.333 151.822 287.747ZM168.736 277.58C168.735 277.581 168.735 277.581 168.734 277.582L170.518 281.161L168.736 277.58ZM220.632 222.342C220.625 222.39 220.593 222.609 220.462 223.039C220.532 223.095 220.597 223.149 220.657 223.202C220.836 223.362 220.902 223.453 220.903 223.453C220.903 223.453 220.901 223.45 220.898 223.445C220.898 223.444 220.633 223.047 220.633 222.333C220.633 222.329 220.633 222.332 220.632 222.342ZM188.045 232.116C188.045 232.116 188.045 232.116 188.045 232.115L185.028 229.489L188.045 232.116Z" fill="black" stroke="black" stroke-width="8"/>
<path d="M41.8545 502.074C42.5189 488.15 43.6211 482.488 47.2154 474.577C51.9729 464.098 59.7318 457.505 67.3215 457.487C77.1347 457.47 86.8538 467.368 86.8538 477.355C86.8538 484.932 79.3321 493.09 60.0108 506.47L41.0156 519.621L41.8545 502.074V502.074Z" fill="black"/>
<path d="M109.077 592.522L101.761 602.034L109.077 592.522C108.721 592.247 107.731 591.298 106.517 589.714C105.346 588.185 104.506 586.769 104.126 585.924C104.124 585.92 104.123 585.917 104.121 585.913L104.047 585.747C102.775 582.894 100.7 578.239 96.3225 575.031C92.1195 571.95 87.1273 571.21 83.9398 570.738L83.6922 570.701L83.6903 570.701C39.6978 564.166 8.83795 525.72 12.26 482.566C14.5345 453.9 27.2574 424.173 62.8632 370.508C87.4339 333.481 98.1158 314.518 105.474 293.59L105.475 293.587C109.786 281.321 110.106 274.857 110.172 245.894C110.172 245.894 110.172 245.893 110.172 245.893L110.241 216.031L114.757 206.416L114.757 206.416C118.46 198.532 121.949 193.857 142.067 173.762C148.787 167.05 155.477 160.078 160.868 154.225C165.966 148.69 170.632 143.381 172.647 140.373L172.65 140.368L177.707 132.808L180.023 129.346L179.696 125.193L175.86 76.496C175.86 76.4947 175.86 76.4934 175.859 76.4921C173.171 42.2282 172 26.8469 172.597 19.136C172.65 18.461 172.712 17.9328 172.771 17.528C173.119 17.3715 173.564 17.1764 174.124 16.939L174.124 16.9388C174.254 16.884 174.372 16.8346 174.479 16.79C175.051 17.0004 175.997 17.3871 177.435 18.0865C184.586 21.5638 197.747 29.5406 225.984 46.6681L225.984 46.6682C238.875 54.487 250.761 61.6054 259.532 66.7787C263.91 69.361 267.552 71.4819 270.168 72.9693C271.464 73.7059 272.582 74.3294 273.44 74.7867C273.851 75.0059 274.326 75.2529 274.782 75.4696C274.993 75.5698 275.37 75.7448 275.82 75.92C276.038 76.0052 276.439 76.1556 276.946 76.301L276.967 76.307C277.276 76.396 278.594 76.7758 280.306 76.7758C282.476 76.7758 284.099 76.1825 284.694 75.9514C285.454 75.6561 286.036 75.3419 286.364 75.1543C287.024 74.7774 287.53 74.4089 287.777 74.2242C288.315 73.8224 288.795 73.4076 289.119 73.1208C289.819 72.5027 290.645 71.7182 291.51 70.8742C293.278 69.1506 295.665 66.7343 298.468 63.8407C304.096 58.0317 311.632 50.0627 319.73 41.3253L319.731 41.3245C331.936 28.1554 339.202 20.5536 343.98 16.1245C346.96 13.3621 348.39 12.4196 348.83 12.1557C349.069 12.447 349.369 12.8369 349.73 13.3507C353.578 18.8318 359.08 30.3952 370.169 54.9664L370.17 54.9684L390.051 98.9997L393.779 107.257L402.742 105.933L413.553 104.335C413.554 104.335 413.554 104.334 413.555 104.334C420.069 103.373 432.403 103.238 446.124 103.972C459.691 104.698 473.359 106.202 482.307 108.104L482.309 108.105C516.431 115.353 550.312 130.163 577.592 149.679L577.593 149.68C595.575 162.541 625.461 192.985 638.991 212.311L638.993 212.313C668.896 255.003 690.775 303.007 711.015 371.326C745.908 489.116 767.38 626.845 767.95 735.942C768.039 753.719 768.044 761.801 767.635 766.087C767.594 766.523 767.552 766.864 767.515 767.122L767.167 767.474L498.857 767.889C391.029 768.056 322.517 768.047 280.539 767.779C259.534 767.645 245.265 767.447 236.066 767.177C231.447 767.041 228.249 766.892 226.171 766.736C226.149 766.734 226.126 766.733 226.103 766.731C225.636 766.076 224.942 764.885 224.192 762.826C222.741 758.839 221.663 753.116 221.305 745.979C220.591 731.745 222.835 713.94 228.336 697.626C237.619 670.128 247.696 655.768 292.493 611.287L284.038 602.772L292.493 611.287C333.258 570.808 345.244 556.408 358.785 529.597C374.707 498.107 381.012 472.805 382.666 434.952L382.666 434.95C382.95 428.433 383.104 422.443 383.12 418.018C383.128 415.837 383.103 413.875 383.028 412.371C382.993 411.68 382.933 410.749 382.798 409.842C382.746 409.487 382.594 408.498 382.204 407.361C382.035 406.866 381.555 405.53 380.505 404.091C379.61 402.864 376.469 399.133 370.765 399.133C368.909 399.133 367.47 399.583 367.184 399.672L367.156 399.681C366.645 399.839 366.237 400.001 366.015 400.092C365.554 400.281 365.151 400.475 364.901 400.599C364.363 400.864 363.768 401.183 363.2 401.495C362.029 402.139 360.491 403.02 358.731 404.052C355.191 406.127 350.489 408.959 345.466 412.06C335.909 417.942 313.848 430.087 296.552 438.936L296.551 438.937C263.662 455.769 243.001 467.419 227.012 482.724C210.86 498.184 200.118 516.746 185.371 545.583C180.028 556.03 172.444 568.527 168.823 573.167L168.818 573.174L168.812 573.182C162.894 580.791 155.06 587.581 147.063 592.409C138.844 597.371 131.631 599.563 126.925 599.563C125.758 599.563 122.667 598.999 118.519 597.428C114.541 595.922 111.058 594.045 109.077 592.522Z" stroke="black" stroke-width="24"/>
</svg>
