<svg width="780" height="780" viewBox="0 0 780 780" fill="none" xmlns="http://www.w3.org/2000/svg">
<path d="M221.203 778.113C207.112 771.028 205.019 729.219 216.965 693.792C227.185 663.516 238.974 647.517 284.038 602.772C324.637 562.457 335.45 549.183 348.076 524.182C363.161 494.346 369.091 470.734 370.678 434.428C371.236 421.611 371.271 411.133 370.765 411.133C370.259 411.133 361.696 416.144 351.756 422.28C341.815 428.398 319.44 440.705 302.018 449.619C235.922 483.446 225.545 493.379 196.055 551.047C190.579 561.754 182.592 575.028 178.284 580.549C164.542 598.218 142.428 611.563 126.925 611.563C120.308 611.563 108.184 606.974 101.761 602.034C98.7666 599.73 94.9003 594.684 93.1685 590.816C90.3207 584.434 89.2568 583.661 81.927 582.571C31.8649 575.134 -3.63682 531.232 0.297549 481.617C2.82803 449.724 17.064 417.831 52.8639 363.874C77.3648 326.952 87.3228 309.037 94.1539 289.609C97.6941 279.535 98.1057 275.051 98.172 245.866L98.247 213.34L103.896 201.314C108.603 191.293 113.555 185.28 133.587 165.272C146.806 152.068 159.885 137.862 162.676 133.696L167.733 126.136L163.896 77.4346C158.63 10.3046 158.612 10.4787 169.442 5.8899C176.819 2.7639 176.453 2.58983 232.207 36.408C257.931 52.0099 279.573 64.7759 280.306 64.7759C281.038 64.7759 294.815 50.5524 310.93 33.1677C335.206 6.97292 341.257 1.36264 346.262 0.416754C356.918 -1.59809 359.429 1.99733 381.106 50.0302L400.988 94.0615L411.8 92.4633C427.339 90.1689 465.165 92.1926 484.802 96.3664C520.484 103.946 555.903 119.409 584.574 139.92C603.723 153.616 634.556 185.051 648.821 205.428C679.672 249.47 702.03 298.751 722.521 367.917C757.697 486.663 779.374 625.523 779.95 735.882C780.124 770.641 780.054 771.52 776.165 775.441L772.189 779.467L498.876 779.889C283.236 780.223 224.639 779.854 221.203 778.113V778.113Z" fill="#C4C4C4"/>
</svg>
